<?xml version="1.0" standalone="no"?>
<!DOCTYPE svg PUBLIC "-//W3C//DTD SVG 20010904//EN"
 "http://www.w3.org/TR/2001/REC-SVG-20010904/DTD/svg10.dtd">
<svg version="1.0" xmlns="http://www.w3.org/2000/svg"
 width="256.000000pt" height="256.000000pt" viewBox="0 0 256.000000 256.000000"
 preserveAspectRatio="xMidYMid meet">
<metadata>
Created by potrace 1.14, written by Peter Selinger 2001-2017
</metadata>
<g transform="translate(0.000000,256.000000) scale(0.100000,-0.100000)"
fill="#000000" stroke="none">
<path d="M1085 2464 c-520 -92 -917 -497 -993 -1014 -14 -89 -6 -322 12 -410
51 -241 168 -453 343 -621 166 -160 363 -264 595 -315 97 -21 312 -26 413 -10
393 63 711 291 889 635 96 187 137 366 131 576 -5 206 -44 360 -134 531 -64
122 -117 192 -226 299 -171 168 -356 268 -595 320 -102 22 -332 27 -435 9z"/>
</g>
</svg>
